<?xml version="1.0" encoding="UTF-8"?>
<svg xmlns="http://www.w3.org/2000/svg"
     width="2048" height="2048" viewBox="0 0 2048 2048">
  <rect width="2048" height="2048" fill="#000000"/>
  <path d="M 953 1346 L 954 1347 L 955 1351 L 963 1359 L 967 1360 L 968 1361 L 981 1361 L 982 1362 L 986 1363 L 991 1367 L 991 1368 L 995 1373 L 995 1375 L 996 1376 L 996 1380 L 997 1381 L 997 1383 L 996 1384 L 996 1389 L 994 1393 L 994 1398 L 995 1399 L 996 1404 L 999 1408 L 999 1409 L 1008 1418 L 1017 1423 L 1019 1423 L 1020 1422 L 1020 1416 L 1021 1415 L 1021 1399 L 1022 1398 L 1022 1383 L 1024 1381 L 1025 1382 L 1025 1385 L 1026 1386 L 1026 1399 L 1027 1400 L 1027 1417 L 1028 1418 L 1028 1422 L 1029 1423 L 1032 1423 L 1039 1418 L 1040 1418 L 1047 1411 L 1047 1410 L 1050 1407 L 1050 1406 L 1053 1402 L 1053 1400 L 1054 1399 L 1054 1395 L 1053 1394 L 1053 1392 L 1052 1391 L 1052 1387 L 1051 1386 L 1051 1379 L 1052 1378 L 1052 1375 L 1054 1371 L 1061 1364 L 1067 1361 L 1072 1361 L 1073 1360 L 1082 1360 L 1086 1357 L 1087 1357 L 1093 1350 L 1093 1348 L 1094 1347 L 1095 1343 L 1094 1341 L 1090 1337 L 1086 1335 L 1078 1333 L 1077 1332 L 1074 1332 L 1073 1331 L 1062 1331 L 1060 1330 L 1059 1331 L 1048 1331 L 1047 1332 L 1041 1332 L 1040 1333 L 1036 1333 L 1035 1334 L 1027 1334 L 1026 1335 L 1022 1335 L 1021 1334 L 1012 1334 L 1011 1333 L 1001 1332 L 1000 1331 L 989 1331 L 988 1330 L 985 1330 L 984 1331 L 975 1331 L 974 1332 L 970 1332 L 969 1333 L 964 1334 L 957 1338 L 954 1341 L 953 1343 Z M 1486 1008 L 1485 1007 L 1480 1006 L 1477 1004 L 1475 1004 L 1474 1003 L 1472 1003 L 1471 1002 L 1469 1002 L 1465 1000 L 1462 1000 L 1458 998 L 1455 998 L 1454 997 L 1451 997 L 1450 996 L 1446 996 L 1445 995 L 1442 995 L 1441 994 L 1437 994 L 1436 993 L 1432 993 L 1431 992 L 1419 991 L 1418 990 L 1409 990 L 1408 989 L 1388 989 L 1387 990 L 1376 990 L 1375 991 L 1369 991 L 1368 992 L 1363 992 L 1362 993 L 1357 993 L 1356 994 L 1354 994 L 1355 1002 L 1357 1006 L 1357 1009 L 1358 1010 L 1359 1016 L 1360 1017 L 1360 1020 L 1361 1021 L 1361 1025 L 1362 1026 L 1362 1033 L 1363 1034 L 1363 1043 L 1364 1044 L 1364 1067 L 1363 1068 L 1363 1078 L 1362 1079 L 1361 1091 L 1360 1092 L 1360 1095 L 1359 1096 L 1358 1103 L 1357 1104 L 1357 1106 L 1356 1107 L 1356 1109 L 1355 1110 L 1353 1118 L 1346 1132 L 1337 1141 L 1331 1144 L 1329 1144 L 1328 1145 L 1325 1145 L 1324 1144 L 1320 1144 L 1318 1143 L 1316 1141 L 1315 1141 L 1308 1134 L 1308 1133 L 1302 1125 L 1297 1115 L 1297 1113 L 1295 1110 L 1295 1108 L 1292 1102 L 1292 1099 L 1290 1095 L 1289 1087 L 1288 1086 L 1288 1081 L 1287 1080 L 1287 1073 L 1286 1072 L 1286 1064 L 1285 1063 L 1285 1059 L 1286 1058 L 1286 1031 L 1287 1030 L 1287 1026 L 1288 1025 L 1289 1017 L 1290 1016 L 1289 1016 L 1287 1018 L 1275 1024 L 1273 1026 L 1272 1026 L 1270 1028 L 1263 1032 L 1256 1038 L 1255 1038 L 1248 1045 L 1247 1045 L 1225 1067 L 1225 1068 L 1220 1073 L 1220 1074 L 1212 1083 L 1212 1084 L 1202 1098 L 1198 1106 L 1196 1108 L 1194 1112 L 1194 1114 L 1192 1117 L 1191 1122 L 1188 1127 L 1188 1129 L 1186 1132 L 1186 1134 L 1181 1144 L 1181 1146 L 1180 1147 L 1179 1151 L 1182 1154 L 1183 1154 L 1194 1162 L 1197 1163 L 1199 1165 L 1207 1169 L 1209 1169 L 1216 1173 L 1218 1173 L 1221 1175 L 1223 1175 L 1226 1177 L 1228 1177 L 1229 1178 L 1231 1178 L 1232 1179 L 1234 1179 L 1240 1182 L 1243 1182 L 1247 1184 L 1250 1184 L 1251 1185 L 1254 1185 L 1255 1186 L 1258 1186 L 1259 1187 L 1262 1187 L 1263 1188 L 1272 1189 L 1273 1190 L 1283 1191 L 1284 1192 L 1295 1192 L 1296 1193 L 1317 1193 L 1318 1192 L 1334 1192 L 1335 1191 L 1341 1191 L 1342 1190 L 1345 1190 L 1346 1189 L 1350 1189 L 1351 1188 L 1354 1188 L 1355 1187 L 1362 1186 L 1363 1185 L 1365 1185 L 1366 1184 L 1368 1184 L 1369 1183 L 1377 1181 L 1380 1179 L 1385 1178 L 1393 1174 L 1395 1172 L 1402 1169 L 1404 1167 L 1411 1163 L 1424 1152 L 1425 1152 L 1443 1134 L 1443 1133 L 1446 1130 L 1446 1129 L 1449 1126 L 1449 1125 L 1452 1122 L 1454 1118 L 1459 1112 L 1461 1107 L 1463 1105 L 1468 1095 L 1468 1093 L 1470 1090 L 1470 1088 L 1473 1083 L 1473 1081 L 1477 1073 L 1477 1069 L 1478 1068 L 1478 1065 L 1480 1061 L 1480 1058 L 1481 1057 L 1481 1054 L 1482 1053 L 1482 1049 L 1483 1048 L 1483 1044 L 1484 1043 L 1484 1036 L 1485 1035 L 1485 1023 L 1486 1022 Z M 560 1010 L 560 1013 L 561 1014 L 561 1026 L 562 1027 L 562 1034 L 563 1035 L 564 1046 L 565 1047 L 565 1051 L 566 1052 L 566 1055 L 567 1056 L 568 1063 L 570 1067 L 570 1070 L 571 1071 L 571 1073 L 572 1074 L 574 1082 L 577 1087 L 577 1089 L 581 1096 L 581 1098 L 586 1108 L 588 1110 L 592 1117 L 595 1120 L 597 1124 L 600 1127 L 600 1128 L 618 1148 L 619 1148 L 632 1160 L 633 1160 L 644 1168 L 647 1169 L 649 1171 L 661 1177 L 663 1177 L 671 1181 L 673 1181 L 674 1182 L 676 1182 L 677 1183 L 679 1183 L 683 1185 L 686 1185 L 690 1187 L 698 1188 L 699 1189 L 702 1189 L 703 1190 L 714 1191 L 715 1192 L 724 1192 L 725 1193 L 749 1193 L 750 1192 L 764 1192 L 765 1191 L 770 1191 L 771 1190 L 776 1190 L 777 1189 L 782 1189 L 783 1188 L 791 1187 L 794 1185 L 798 1185 L 799 1184 L 801 1184 L 802 1183 L 804 1183 L 805 1182 L 807 1182 L 811 1180 L 814 1180 L 820 1177 L 825 1176 L 828 1174 L 830 1174 L 833 1172 L 835 1172 L 839 1170 L 841 1168 L 850 1164 L 852 1162 L 855 1161 L 860 1157 L 863 1156 L 865 1154 L 869 1152 L 868 1148 L 867 1147 L 867 1145 L 865 1142 L 864 1137 L 862 1134 L 862 1132 L 860 1129 L 860 1127 L 856 1120 L 856 1118 L 854 1114 L 852 1112 L 851 1109 L 849 1107 L 845 1099 L 841 1094 L 836 1084 L 833 1081 L 833 1080 L 827 1073 L 827 1072 L 807 1051 L 806 1051 L 792 1038 L 791 1038 L 788 1035 L 784 1033 L 781 1030 L 780 1030 L 766 1020 L 758 1016 L 757 1016 L 758 1017 L 758 1021 L 759 1022 L 759 1026 L 760 1027 L 760 1033 L 761 1034 L 761 1071 L 760 1072 L 760 1079 L 759 1080 L 759 1085 L 758 1086 L 758 1090 L 757 1091 L 757 1094 L 755 1098 L 755 1101 L 754 1102 L 754 1104 L 753 1105 L 751 1113 L 749 1116 L 749 1118 L 744 1128 L 742 1130 L 740 1134 L 737 1137 L 737 1138 L 729 1143 L 723 1144 L 722 1145 L 719 1145 L 718 1144 L 715 1144 L 711 1141 L 710 1141 L 704 1135 L 703 1132 L 698 1125 L 696 1121 L 696 1119 L 693 1114 L 693 1112 L 692 1111 L 692 1109 L 691 1108 L 691 1106 L 690 1105 L 690 1103 L 688 1099 L 688 1096 L 687 1095 L 687 1092 L 686 1091 L 686 1086 L 685 1085 L 685 1078 L 684 1077 L 684 1070 L 683 1069 L 683 1042 L 684 1041 L 684 1033 L 685 1032 L 685 1027 L 686 1026 L 686 1022 L 687 1021 L 687 1018 L 688 1017 L 689 1008 L 692 1002 L 692 1000 L 695 995 L 693 994 L 690 994 L 689 993 L 684 993 L 683 992 L 672 991 L 671 990 L 658 990 L 657 989 L 630 990 L 629 991 L 623 991 L 622 992 L 617 992 L 616 993 L 611 993 L 610 994 L 601 995 L 600 996 L 597 996 L 596 997 L 595 996 L 594 997 L 592 997 L 588 999 L 585 999 L 584 1000 L 582 1000 L 581 1001 L 579 1001 L 575 1003 L 568 1004 L 566 1006 L 562 1007 Z M 1591 375 L 1588 376 L 1576 388 L 1575 388 L 1569 394 L 1568 394 L 1563 399 L 1562 399 L 1552 409 L 1551 409 L 1544 416 L 1544 417 L 1519 441 L 1519 442 L 1511 450 L 1511 451 L 1487 476 L 1487 477 L 1482 482 L 1482 483 L 1463 504 L 1463 505 L 1459 509 L 1459 510 L 1456 513 L 1456 514 L 1452 518 L 1452 519 L 1448 523 L 1448 524 L 1444 528 L 1444 529 L 1438 535 L 1438 536 L 1434 540 L 1434 541 L 1428 548 L 1426 552 L 1419 560 L 1419 561 L 1411 572 L 1410 575 L 1407 578 L 1407 579 L 1401 587 L 1400 590 L 1392 601 L 1391 604 L 1389 606 L 1387 611 L 1385 613 L 1383 617 L 1383 620 L 1384 621 L 1395 626 L 1403 632 L 1411 636 L 1413 638 L 1414 638 L 1416 640 L 1417 640 L 1419 642 L 1420 642 L 1422 644 L 1423 644 L 1425 646 L 1426 646 L 1428 648 L 1429 648 L 1431 650 L 1432 650 L 1434 652 L 1441 656 L 1444 659 L 1448 661 L 1459 670 L 1460 670 L 1466 675 L 1467 675 L 1479 686 L 1480 686 L 1496 700 L 1497 700 L 1502 705 L 1503 705 L 1514 716 L 1515 716 L 1522 723 L 1523 723 L 1561 762 L 1561 763 L 1572 775 L 1572 776 L 1575 779 L 1575 780 L 1578 783 L 1578 784 L 1582 788 L 1582 789 L 1588 797 L 1589 797 L 1591 793 L 1591 791 L 1592 790 L 1594 782 L 1596 779 L 1596 777 L 1597 776 L 1597 774 L 1598 773 L 1598 771 L 1599 770 L 1599 768 L 1600 767 L 1600 765 L 1601 764 L 1601 762 L 1603 758 L 1603 755 L 1604 754 L 1604 752 L 1605 751 L 1605 749 L 1607 745 L 1607 742 L 1608 741 L 1608 739 L 1610 735 L 1610 732 L 1611 731 L 1611 728 L 1613 724 L 1613 721 L 1614 720 L 1614 717 L 1615 716 L 1615 713 L 1616 712 L 1616 708 L 1617 707 L 1617 704 L 1618 703 L 1618 700 L 1619 699 L 1619 695 L 1620 694 L 1620 690 L 1621 689 L 1621 686 L 1622 685 L 1623 675 L 1624 674 L 1624 670 L 1625 669 L 1625 664 L 1626 663 L 1626 656 L 1627 655 L 1628 641 L 1629 640 L 1629 632 L 1630 631 L 1630 623 L 1631 622 L 1631 613 L 1632 612 L 1632 595 L 1633 594 L 1633 561 L 1632 560 L 1632 544 L 1631 543 L 1630 523 L 1629 522 L 1629 514 L 1628 513 L 1628 506 L 1627 505 L 1627 499 L 1626 498 L 1625 486 L 1624 485 L 1624 481 L 1623 480 L 1623 477 L 1622 476 L 1622 473 L 1621 472 L 1621 469 L 1620 468 L 1620 464 L 1619 463 L 1619 460 L 1618 459 L 1617 452 L 1616 451 L 1615 445 L 1614 444 L 1614 440 L 1613 439 L 1613 437 L 1611 433 L 1611 430 L 1610 429 L 1610 427 L 1609 426 L 1609 424 L 1607 420 L 1606 413 L 1605 412 L 1605 410 L 1604 409 L 1604 407 L 1603 406 L 1601 398 L 1599 395 L 1599 393 L 1597 390 L 1597 388 L 1595 385 L 1595 383 Z M 456 375 L 455 379 L 454 380 L 454 382 L 453 383 L 453 385 L 450 390 L 450 392 L 448 395 L 447 400 L 444 405 L 444 407 L 443 408 L 443 410 L 442 411 L 442 413 L 440 417 L 440 420 L 439 421 L 439 423 L 437 427 L 437 430 L 436 431 L 436 433 L 434 437 L 434 440 L 433 441 L 433 444 L 432 445 L 432 448 L 431 449 L 431 452 L 430 453 L 430 456 L 429 457 L 429 460 L 428 461 L 428 464 L 427 465 L 427 468 L 426 469 L 425 480 L 424 481 L 424 485 L 423 486 L 423 490 L 422 491 L 421 503 L 420 504 L 420 510 L 419 511 L 419 518 L 418 519 L 418 526 L 417 527 L 417 536 L 416 537 L 416 551 L 415 552 L 415 608 L 416 609 L 416 618 L 417 619 L 417 628 L 418 629 L 418 638 L 419 639 L 420 655 L 421 656 L 422 668 L 423 669 L 423 673 L 424 674 L 424 679 L 425 680 L 425 684 L 426 685 L 427 694 L 428 695 L 428 698 L 429 699 L 429 702 L 430 703 L 430 706 L 431 707 L 431 710 L 432 711 L 432 714 L 433 715 L 434 722 L 435 723 L 436 729 L 438 733 L 438 736 L 439 737 L 439 739 L 441 743 L 441 746 L 442 747 L 442 749 L 443 750 L 443 752 L 444 753 L 444 755 L 446 759 L 446 762 L 447 763 L 448 768 L 450 771 L 450 773 L 451 774 L 451 776 L 452 777 L 454 785 L 456 788 L 456 790 L 458 793 L 458 795 L 460 797 L 463 791 L 466 788 L 466 787 L 469 784 L 469 783 L 472 780 L 472 779 L 477 774 L 477 773 L 482 768 L 482 767 L 489 760 L 489 759 L 509 739 L 509 738 L 514 733 L 515 733 L 531 717 L 532 717 L 549 701 L 550 701 L 555 696 L 556 696 L 561 691 L 562 691 L 567 686 L 568 686 L 571 683 L 572 683 L 576 679 L 577 679 L 580 676 L 581 676 L 584 673 L 585 673 L 593 666 L 594 666 L 596 664 L 600 662 L 603 659 L 604 659 L 607 656 L 611 654 L 614 651 L 615 651 L 623 645 L 626 644 L 638 635 L 645 632 L 650 628 L 653 627 L 659 622 L 665 619 L 663 615 L 661 613 L 660 610 L 658 608 L 657 605 L 655 603 L 654 600 L 652 598 L 651 595 L 643 584 L 642 581 L 640 579 L 639 576 L 637 574 L 633 567 L 620 551 L 620 550 L 618 548 L 614 541 L 608 534 L 608 533 L 604 529 L 604 528 L 600 524 L 600 523 L 595 518 L 595 517 L 587 508 L 587 507 L 584 504 L 584 503 L 579 498 L 579 497 L 574 492 L 574 491 L 569 486 L 569 485 L 560 476 L 560 475 L 542 456 L 542 455 L 519 432 L 519 431 L 518 431 L 517 429 L 515 428 L 515 427 L 507 419 L 506 419 L 488 401 L 487 401 L 472 387 L 471 387 L 461 378 L 460 378 Z" fill="#FFFFFF"/>
</svg>
